<svg xmlns="http://www.w3.org/2000/svg" version="1.1" width="256" height="256">
<defs><filter id="f1" x="0" y="0"><feGaussianBlur in="SourceGraphic" stdDeviation="2" /></filter></defs>
<rect x="0" y="0" width="256" height="256" fill="#3e3f58" />
<g transform="scale(4.000000) translate(0.5 0.5)" filter="url(#f1)">
<polygon fill="#edffff" fill-opacity="0.501961" points="179,103 111,33 173,29" />
<polygon fill="#21181d" fill-opacity="0.501961" points="-16,254 271,250 63,95" />
<polygon fill="#ffffff" fill-opacity="0.501961" points="158,127 131,97 129,133" />
<polygon fill="#4660b9" fill-opacity="0.501961" points="59,144 15,-16 -16,134" />
<polygon fill="#4b539c" fill-opacity="0.501961" points="243,69 271,0 49,-11" />
<polygon fill="#a7c5b7" fill-opacity="0.501961" points="107,89 181,85 179,43" />
<polygon fill="#392831" fill-opacity="0.501961" points="54,35 56,177 144,2" />
<polygon fill="#d6ffff" fill-opacity="0.501961" points="137,58 141,25 176,55" />
<polygon fill="#8b9287" fill-opacity="0.501961" points="144,115 181,109 145,158" />
<polygon fill="#0f1623" fill-opacity="0.501961" points="16,271 -16,186 59,136" />
<polygon fill="#43518f" fill-opacity="0.501961" points="98,-8 -9,-16 2,123" />
<polygon fill="#644a55" fill-opacity="0.501961" points="109,33 159,72 76,91" />
<polygon fill="#e6ffff" fill-opacity="0.501961" points="128,131 142,133 137,99" />
<polygon fill="#2b272d" fill-opacity="0.501961" points="236,197 153,111 175,216" />
<polygon fill="#2a1f22" fill-opacity="0.501961" points="198,87 110,95 167,106" />
<polygon fill="#c4fbf2" fill-opacity="0.501961" points="173,122 179,104 164,116" />
<polygon fill="#3c427f" fill-opacity="0.501961" points="198,-16 271,119 192,183" />
<polygon fill="#3a2f3b" fill-opacity="0.501961" points="117,86 37,92 171,271" />
<polygon fill="#d9ffff" fill-opacity="0.501961" points="148,86 174,85 147,75" />
<polygon fill="#3c3630" fill-opacity="0.501961" points="198,56 171,16 134,10" />
<polygon fill="#575da4" fill-opacity="0.501961" points="253,-16 221,19 105,1" />
<polygon fill="#28202f" fill-opacity="0.501961" points="62,31 50,119 114,8" />
<polygon fill="#81a8a2" fill-opacity="0.501961" points="118,51 131,20 165,31" />
<polygon fill="#4762ad" fill-opacity="0.501961" points="36,153 58,125 -13,83" />
<polygon fill="#e5ffff" fill-opacity="0.501961" points="161,64 165,39 142,51" />
<polygon fill="#82c9b6" fill-opacity="0.501961" points="194,160 202,177 205,169" />
<polygon fill="#574250" fill-opacity="0.501961" points="98,156 67,105 129,120" />
<polygon fill="#382e36" fill-opacity="0.501961" points="180,140 179,26 197,75" />
<polygon fill="#a8d0d6" fill-opacity="0.501961" points="128,92 109,80 127,83" />
<polygon fill="#8b9b93" fill-opacity="0.501961" points="141,143 167,170 151,138" />
<polygon fill="#171f20" fill-opacity="0.501961" points="271,202 269,172 222,171" />
<polygon fill="#5a545d" fill-opacity="0.501961" points="151,172 162,206 134,191" />
<polygon fill="#2b232f" fill-opacity="0.501961" points="204,180 143,124 198,219" />
<polygon fill="#3e477b" fill-opacity="0.501961" points="-16,-9 70,17 41,97" />
<polygon fill="#477572" fill-opacity="0.501961" points="241,189 246,220 217,208" />
<polygon fill="#c5f8e7" fill-opacity="0.501961" points="146,117 129,105 128,128" />
<polygon fill="#10131d" fill-opacity="0.501961" points="24,170 -16,167 -11,240" />
<polygon fill="#79978d" fill-opacity="0.501961" points="181,48 164,28 178,95" />
<polygon fill="#2f2e3e" fill-opacity="0.501961" points="203,138 262,154 160,157" />
<polygon fill="#42333a" fill-opacity="0.501961" points="188,106 147,116 137,100" />
<polygon fill="#5c4755" fill-opacity="0.501961" points="146,65 130,106 124,55" />
<polygon fill="#525b99" fill-opacity="0.501961" points="96,-5 55,23 147,-1" />
<polygon fill="#242737" fill-opacity="0.501961" points="-16,254 83,265 68,113" />
<polygon fill="#536970" fill-opacity="0.501961" points="193,158 256,169 212,174" />
<polygon fill="#272432" fill-opacity="0.501961" points="147,173 140,130 65,192" />
<polygon fill="#384069" fill-opacity="0.501961" points="50,144 -16,109 -4,173" />
<polygon fill="#3d3340" fill-opacity="0.501961" points="271,257 131,227 -4,271" />
<polygon fill="#4e3a49" fill-opacity="0.501961" points="80,87 149,8 77,42" />
<polygon fill="#2b2531" fill-opacity="0.501961" points="127,121 74,88 129,91" />
<polygon fill="#3a376c" fill-opacity="0.501961" points="261,157 209,102 265,-16" />
<polygon fill="#c4e7df" fill-opacity="0.501961" points="179,96 167,74 160,78" />
<polygon fill="#9ed6cc" fill-opacity="0.501961" points="167,33 132,33 132,59" />
<polygon fill="#6b7889" fill-opacity="0.501961" points="136,60 130,31 112,45" />
<polygon fill="#465692" fill-opacity="0.501961" points="-16,46 48,84 53,46" />
<polygon fill="#444e8f" fill-opacity="0.501961" points="211,77 188,12 243,-1" />
<polygon fill="#2d2531" fill-opacity="0.501961" points="141,106 178,95 165,87" />
<polygon fill="#cdf1e8" fill-opacity="0.501961" points="130,125 144,132 136,96" />
<polygon fill="#1d2126" fill-opacity="0.501961" points="245,199 270,249 271,163" />
<polygon fill="#94b1ad" fill-opacity="0.501961" points="176,64 135,79 145,86" />
<polygon fill="#4865b7" fill-opacity="0.501961" points="59,134 40,106 -4,96" />
<polygon fill="#3f353e" fill-opacity="0.501961" points="159,128 164,210 185,121" />
<polygon fill="#67947d" fill-opacity="0.501961" points="238,190 228,178 251,193" />
<polygon fill="#5f606b" fill-opacity="0.501961" points="120,32 160,27 128,18" />
<polygon fill="#c9f6eb" fill-opacity="0.501961" points="171,44 165,62 143,38" />
<polygon fill="#262734" fill-opacity="0.501961" points="165,177 245,199 225,177" />
<polygon fill="#40436d" fill-opacity="0.501961" points="35,50 -16,34 21,-10" />
<polygon fill="#71737e" fill-opacity="0.501961" points="161,143 159,114 143,122" />
<polygon fill="#6f6571" fill-opacity="0.501961" points="120,90 111,78 96,86" />
<polygon fill="#262838" fill-opacity="0.501961" points="70,168 46,99 68,34" />
<polygon fill="#58928a" fill-opacity="0.501961" points="-10,170 5,162 13,166" />
<polygon fill="#6b9daf" fill-opacity="0.501961" points="181,134 188,148 186,138" />
<polygon fill="#393c51" fill-opacity="0.501961" points="103,9 187,36 153,5" />
<polygon fill="#6e5863" fill-opacity="0.501961" points="89,121 74,113 108,114" />
<polygon fill="#1d1d2a" fill-opacity="0.501961" points="177,127 183,188 196,176" />
<polygon fill="#2c232c" fill-opacity="0.501961" points="137,145 149,134 111,134" />
<polygon fill="#272739" fill-opacity="0.501961" points="-13,143 51,190 88,182" />
<polygon fill="#333946" fill-opacity="0.501961" points="224,198 257,267 271,252" />
<polygon fill="#acd5d0" fill-opacity="0.501961" points="177,120 156,117 174,112" />
<polygon fill="#393141" fill-opacity="0.501961" points="202,167 222,213 202,255" />
<polygon fill="#65888e" fill-opacity="0.501961" points="193,157 193,167 215,173" />
<polygon fill="#465a6f" fill-opacity="0.501961" points="245,176 271,163 198,156" />
<polygon fill="#504e53" fill-opacity="0.501961" points="137,147 162,159 179,188" />
<polygon fill="#91baba" fill-opacity="0.501961" points="173,125 178,107 170,120" />
<polygon fill="#4d4351" fill-opacity="0.501961" points="136,77 133,96 140,104" />
<polygon fill="#393e65" fill-opacity="0.501961" points="190,158 232,123 192,37" />
<polygon fill="#423541" fill-opacity="0.501961" points="129,96 128,128 79,107" />
<polygon fill="#434775" fill-opacity="0.501961" points="180,31 150,9 182,1" />
<polygon fill="#d8fff8" fill-opacity="0.501961" points="149,82 156,85 165,80" />
<polygon fill="#473944" fill-opacity="0.501961" points="155,114 167,161 186,166" />
<polygon fill="#343141" fill-opacity="0.501961" points="46,105 58,134 109,134" />
<polygon fill="#5f4b56" fill-opacity="0.501961" points="149,75 147,58 94,84" />
<polygon fill="#8ea598" fill-opacity="0.501961" points="166,29 149,29 177,49" />
<polygon fill="#6f696c" fill-opacity="0.501961" points="179,82 179,108 175,96" />
<polygon fill="#3d497b" fill-opacity="0.501961" points="48,86 41,110 -16,86" />
<polygon fill="#382b3c" fill-opacity="0.501961" points="117,11 85,17 94,74" />
<polygon fill="#3e426e" fill-opacity="0.501961" points="9,110 24,114 -6,155" />
<polygon fill="#8bb0ae" fill-opacity="0.501961" points="129,34 152,65 133,52" />
<polygon fill="#473f51" fill-opacity="0.501961" points="109,243 92,271 150,247" />
<polygon fill="#4f7379" fill-opacity="0.501961" points="252,213 219,203 229,216" />
<polygon fill="#242131" fill-opacity="0.501961" points="66,120 75,22 52,62" />
</g>
</svg>