<svg xmlns="http://www.w3.org/2000/svg" version="1.1" width="256" height="256">
<defs><filter id="f1" x="0" y="0"><feGaussianBlur in="SourceGraphic" stdDeviation="2" /></filter></defs>
<rect x="0" y="0" width="256" height="256" fill="#9e9772" />
<g transform="scale(8.000000) translate(0.5 0.5)" filter="url(#f1)">
<polygon fill="#f7f1c1" fill-opacity="0.501961" points="6.950087,7.747282,2.115420,27.225619,-16.000000,-7.866959,47.000000,-1.693921" />
<polygon fill="#6d664d" fill-opacity="0.501961" points="23,2 47,27 1,26" />
<g transform="translate(20 14) rotate(264) scale(31 1)"><rect fill="#d5c880" fill-opacity="0.501961" x="-0.5" y="-0.5" width="1" height="1" /></g>
<polygon fill="#fff7cb" fill-opacity="0.501961" points="11,-16 -14,10 -3,31" />
<polygon fill="#69604d" fill-opacity="0.501961" points="8.123537,9.957667,10.096358,-1.831603,14.882726,25.625704,3.583248,27.208443" />
<polygon fill="#b3af80" fill-opacity="0.501961" points="34.858533,8.364241,15.739662,11.976578,-3.361769,-13.090707,38.699933,5.135030" />
<rect fill="#464847" fill-opacity="0.501961" x="24" y="19" width="8" height="4" />
<polygon fill="#f8ecbd" fill-opacity="0.501961" points="47,13 21,-4 41,0" />
<polygon fill="#8b875f" fill-opacity="0.501961" points="25.043968,6.688795,17.886529,12.869514,16.686533,36.852693,19.268303,-16.000000" />
<rect fill="#b7b661" fill-opacity="0.501961" x="17" y="27" width="15" height="4" />
<polygon fill="#655d4d" fill-opacity="0.501961" points="-11.817258,29.800455,19.182852,24.443673,12.177708,21.456966,-16.000000,31.292044" />
<ellipse fill="#ffeeb0" fill-opacity="0.501961" cx="20" cy="16" rx="1" ry="4" />
<rect fill="#d5ce9d" fill-opacity="0.501961" x="4" y="0" width="3" height="16" />
<g transform="translate(9 0) rotate(234) scale(30 1)"><rect fill="#c3c094" fill-opacity="0.501961" x="-0.5" y="-0.5" width="1" height="1" /></g>
<rect fill="#6c6d44" fill-opacity="0.501961" x="17" y="31" width="15" height="1" />
<ellipse fill="#64604f" fill-opacity="0.501961" cx="29" cy="14" rx="1" ry="11" />
<rect fill="#696654" fill-opacity="0.501961" x="9" y="20" width="10" height="9" />
<g transform="translate(21 7) rotate(230) scale(1 8)"><rect fill="#655b3f" fill-opacity="0.501961" x="-0.5" y="-0.5" width="1" height="1" /></g>
<polygon fill="#f9eec0" fill-opacity="0.501961" points="4,21 -16,30 -16,5" />
<polygon fill="#7f765a" fill-opacity="0.501961" points="2.854892,27.075472,0.158095,41.617029,15.331433,10.091633,8.680503,7.581822" />
<g transform="translate(11 31) rotate(344) scale(13 1)"><rect fill="#c7cd7b" fill-opacity="0.501961" x="-0.5" y="-0.5" width="1" height="1" /></g>
<rect fill="#ccbb83" fill-opacity="0.501961" x="20" y="17" width="2" height="13" />
<rect fill="#938d5e" fill-opacity="0.501961" x="3" y="27" width="21" height="3" />
<g transform="translate(24 9) rotate(205) scale(5 1)"><rect fill="#e3d288" fill-opacity="0.501961" x="-0.5" y="-0.5" width="1" height="1" /></g>
<g transform="translate(8 13) rotate(376) scale(1 17)"><rect fill="#776d55" fill-opacity="0.501961" x="-0.5" y="-0.5" width="1" height="1" /></g>
<g transform="translate(23 1) rotate(320) scale(19 3)"><rect fill="#b0b280" fill-opacity="0.501961" x="-0.5" y="-0.5" width="1" height="1" /></g>
<polygon fill="#e7dfb1" fill-opacity="0.501961" points="47,9 28,-10 32,8" />
<g transform="translate(25 16) rotate(167) scale(1 8)"><rect fill="#9a9670" fill-opacity="0.501961" x="-0.5" y="-0.5" width="1" height="1" /></g>
<ellipse fill="#cac698" fill-opacity="0.501961" cx="5" cy="15" rx="2" ry="2" />
<g transform="translate(31 14) rotate(55) scale(26 1)"><rect fill="#7a7359" fill-opacity="0.501961" x="-0.5" y="-0.5" width="1" height="1" /></g>
<polygon fill="#bfb88f" fill-opacity="0.501961" points="28.549078,7.284975,29.667415,10.927582,23.749000,1.552330,35.661426,-16.000000" />
<polygon fill="#6a5e4a" fill-opacity="0.501961" points="6,16 5,20 7,24" />
</g>
</svg>